# xmcd CD database file
#
# Track frame offsets:
#	150
#	16107
#	34972
#
# Disc length: 590 seconds
#
# Revision: 0
# Processed by: cddbd v1.5PL3 Copyright (c) Steve Scherf et al.
# Submitted via: CDex 1.50
#
DISCID=19024c03
DTITLE=Fullgain - I Hope
DYEAR=1900
DGENRE=Hip-Hop
TTITLE0=I Hope
TTITLE1=仰ぎ見るとき
TTITLE2=CARRY ON
EXTD=
EXTT0=
EXTT1=
EXTT2=
PLAYORDER=
